HIERARCHY
ROOT Hips
{
	OFFSET 0.000000 89.005402 0.000000
	CHANNELS 6 Xposition Yposition Zposition Xrotation Yrotation Zrotation
	JOINT Spine
	{
		OFFSET 0.116900 10.681000 0.373400
		CHANNELS 3 Xrotation Yrotation Zrotation
		JOINT Spine1
		{
			OFFSET 0.000000 13.840401 0.053500
			CHANNELS 3 Xrotation Yrotation Zrotation
			JOINT Spine2
			{
				OFFSET 0.000000 14.712700 -0.366200
				CHANNELS 3 Xrotation Yrotation Zrotation
				JOINT Neck
				{
					OFFSET 0.000000 35.415497 -3.314200
					CHANNELS 3 Xrotation Yrotation Zrotation
					JOINT Head
					{
						OFFSET 0.000000 16.899200 1.218300
						CHANNELS 3 Xrotation Yrotation Zrotation
						JOINT HeadTop_End
						{
							OFFSET 0.000000 22.206207 2.192500
							CHANNELS 3 Xrotation Yrotation Zrotation
							End Site
							{
								OFFSET 0.000000 22.314178 0.000000
							}
						}
					}
				}
				JOINT LeftShoulder
				{
					OFFSET 12.896400 26.716293 -4.548400
					CHANNELS 3 Xrotation Yrotation Zrotation
					JOINT LeftArm
					{
						OFFSET 19.027000 -4.857010 -1.718400
						CHANNELS 3 Xrotation Yrotation Zrotation
						JOINT LeftForeArm
						{
							OFFSET 24.179897 0.000000 0.000000
							CHANNELS 3 Xrotation Yrotation Zrotation
							JOINT LeftHand
							{
								OFFSET 27.156403 0.000000 0.000000
								CHANNELS 3 Xrotation Yrotation Zrotation
								JOINT LeftHandIndex1
								{
									OFFSET 16.441200 0.000000 0.000000
									CHANNELS 3 Xrotation Yrotation Zrotation
									JOINT LeftHandIndex2
									{
										OFFSET 4.821899 0.000000 0.000000
										CHANNELS 3 Xrotation Yrotation Zrotation
										JOINT LeftHandIndex3
										{
											OFFSET 6.386497 0.000000 0.000000
											CHANNELS 3 Xrotation Yrotation Zrotation
											JOINT LeftHandIndex4
											{
												OFFSET 5.188988 0.000000 0.000000
												CHANNELS 3 Xrotation Yrotation Zrotation
												End Site
												{
													OFFSET -0.178703 5.185913 0.000177
												}
											}
										}
									}
								}
								JOINT LeftHandThumb1
								{
									OFFSET 6.534897 -5.032593 5.900300
									CHANNELS 3 Xrotation Yrotation Zrotation
									JOINT LeftHandThumb2
									{
										OFFSET 3.818176 -2.204422 2.204423
										CHANNELS 3 Xrotation Yrotation Zrotation
										JOINT LeftHandThumb3
										{
											OFFSET 3.252098 -1.877594 1.877601
											CHANNELS 3 Xrotation Yrotation Zrotation
											JOINT LeftHandThumb4
											{
												OFFSET 5.251778 -3.032120 3.032117
												CHANNELS 3 Xrotation Yrotation Zrotation
												End Site
												{
													OFFSET 0.000023 6.780014 0.000000
												}
											}
										}
									}
								}
							}
						}
					}
				}
				JOINT RightShoulder
				{
					OFFSET -12.896300 26.716293 -4.548400
					CHANNELS 3 Xrotation Yrotation Zrotation
					JOINT RightArm
					{
						OFFSET -19.027000 -4.857010 -1.718400
						CHANNELS 3 Xrotation Yrotation Zrotation
						JOINT RightForeArm
						{
							OFFSET -24.179897 0.000000 0.000000
							CHANNELS 3 Xrotation Yrotation Zrotation
							JOINT RightHand
							{
								OFFSET -27.156403 0.000000 0.000000
								CHANNELS 3 Xrotation Yrotation Zrotation
								JOINT RightHandThumb1
								{
									OFFSET -6.591202 -4.852203 5.988100
									CHANNELS 3 Xrotation Yrotation Zrotation
									JOINT RightHandThumb2
									{
										OFFSET -3.818176 -2.204422 2.204423
										CHANNELS 3 Xrotation Yrotation Zrotation
										JOINT RightHandThumb3
										{
											OFFSET -3.252098 -1.877594 1.877601
											CHANNELS 3 Xrotation Yrotation Zrotation
											JOINT RightHandThumb4
											{
												OFFSET -5.251778 -3.032120 3.032117
												CHANNELS 3 Xrotation Yrotation Zrotation
												End Site
												{
													OFFSET -0.000023 6.780014 0.000000
												}
											}
										}
									}
								}
								JOINT RightHandIndex1
								{
									OFFSET -16.029404 0.000000 0.000000
									CHANNELS 3 Xrotation Yrotation Zrotation
									JOINT RightHandIndex2
									{
										OFFSET -5.213303 0.000000 0.000000
										CHANNELS 3 Xrotation Yrotation Zrotation
										JOINT RightHandIndex3
										{
											OFFSET -6.386528 0.000000 0.000000
											CHANNELS 3 Xrotation Yrotation Zrotation
											JOINT RightHandIndex4
											{
												OFFSET -5.189026 0.000000 0.000000
												CHANNELS 3 Xrotation Yrotation Zrotation
												End Site
												{
													OFFSET 0.236702 5.183624 0.001972
												}
											}
										}
									}
								}
							}
						}
					}
				}
			}
		}
	}
	JOINT LeftUpLeg
	{
		OFFSET 14.073000 -7.904099 -1.463000
		CHANNELS 3 Xrotation Yrotation Zrotation
		JOINT LeftLeg
		{
			OFFSET -0.109806 -34.073280 4.093200
			CHANNELS 3 Xrotation Yrotation Zrotation
			JOINT LeftFoot
			{
				OFFSET 0.109806 -29.899420 -6.319000
				CHANNELS 3 Xrotation Yrotation Zrotation
				JOINT LeftToeBase
				{
					OFFSET 1.551100 -14.988700 20.535801
					CHANNELS 3 Xrotation Yrotation Zrotation
					JOINT LeftToe_End
					{
						OFFSET 0.221200 0.570800 13.248301
						CHANNELS 3 Xrotation Yrotation Zrotation
						End Site
						{
							OFFSET 0.000000 13.262435 0.000000
						}
					}
				}
			}
		}
	}
	JOINT RightUpLeg
	{
		OFFSET -13.839300 -7.904099 -1.463000
		CHANNELS 3 Xrotation Yrotation Zrotation
		JOINT RightLeg
		{
			OFFSET 0.109694 -34.073219 4.093300
			CHANNELS 3 Xrotation Yrotation Zrotation
			JOINT RightFoot
			{
				OFFSET -0.109694 -29.899384 -6.319200
				CHANNELS 3 Xrotation Yrotation Zrotation
				JOINT RightToeBase
				{
					OFFSET -1.551100 -14.988700 20.535801
					CHANNELS 3 Xrotation Yrotation Zrotation
					JOINT RightToe_End
					{
						OFFSET -0.221200 0.570900 13.248299
						CHANNELS 3 Xrotation Yrotation Zrotation
						End Site
						{
							OFFSET 0.000000 13.262440 0.000000
						}
					}
				}
			}
		}
	}
}
MOTION
Frames: 9
Frame Time: 0.033333
-0.856300 85.301743 36.892403 -3.248517 -1.873024 -1.894190 0.093383 -0.006804 0.788428 -0.052952 -0.002763 0.233399 -0.052955 -0.001779 0.233407 3.520661 -0.744546 -0.023118 -0.012281 -3.046772 -2.584930 -0.000000 0.000000 0.000000 2.073471 -8.994638 -8.103161 15.834991 3.430604 -71.908935 -0.000004 -38.064098 -0.000005 0.985545 20.489864 -4.193638 -0.312733 1.686245 -34.574827 0.620572 2.861484 -24.467901 0.010686 0.384277 -3.185980 0.000000 -0.000001 -0.000000 -1.051352 4.551283 7.793791 6.497846 18.430639 -1.299462 1.798032 8.696907 1.132373 -0.000000 -0.000001 -0.000002 1.369860 2.490391 9.499115 5.804242 -1.354410 73.026887 0.000004 25.902685 -0.000021 17.506519 -19.223873 5.168715 -8.903882 -6.599024 -11.303992 9.878201 -21.964608 0.839103 1.056548 -6.200545 -2.154259 0.000002 0.000002 -0.000001 -0.405384 0.243499 17.415107 1.094875 -3.750355 32.539185 0.488576 -2.564897 21.566281 0.000001 -0.000003 -0.000000 -6.911398 16.310044 9.754366 24.372762 -4.179065 3.024600 -15.318268 1.487471 -6.890076 -0.893511 -0.000002 0.000000 -0.000000 0.000000 0.000000 -1.492272 -5.384318 -5.951175 18.729729 -6.425514 -1.112479 -12.657232 -1.776905 9.838019 -0.000086 -0.000005 0.000002 0.000000 -0.000000 0.000000 
-1.427372 85.312889 36.983269 -3.229906 -1.895360 -1.604134 0.108967 -0.045692 0.821247 -0.058016 -0.014315 0.243743 -0.058030 -0.013172 0.243801 3.611059 -0.710872 -0.035352 -0.417709 -2.752334 -3.028363 -0.000000 -0.000000 0.000000 2.080814 -9.045922 -8.103186 15.682651 4.347047 -72.255690 0.000000 -38.417830 -0.000001 1.284278 20.560061 -4.248078 -0.321984 1.672679 -34.574735 0.619585 2.859301 -24.448032 0.010502 0.380964 -3.158456 -0.000000 0.000001 0.000003 -1.054287 4.545820 7.793963 6.497402 18.429105 -1.299148 1.796994 8.694095 1.132971 -0.000001 -0.000002 0.000000 1.373241 2.488047 9.520365 6.299764 -0.229294 72.955484 -0.000004 26.311311 0.000023 17.265135 -19.286564 5.150743 -8.918887 -6.563948 -11.395237 9.869408 -21.944131 0.837044 1.051552 -6.187250 -2.154229 0.000001 0.000003 0.000002 -0.389280 0.226442 17.164940 1.094552 -3.749846 32.534254 0.498289 -2.589309 21.782301 0.000001 -0.000002 0.000000 -6.521106 16.182670 9.699404 23.661170 -4.011026 3.278970 -14.896742 1.593798 -7.579732 -0.836049 -0.000002 0.000003 -0.000000 -0.000001 -0.000000 -1.631176 -5.302089 -5.792591 19.287754 -6.543936 -1.102657 -13.183041 -1.710691 9.455514 -0.000082 -0.000003 -0.000002 -0.000000 0.000000 -0.000000 
-1.985215 85.326111 37.039894 -3.207557 -1.956666 -1.276933 0.180221 -0.065621 0.798116 -0.044499 -0.020280 0.236885 -0.044515 -0.019085 0.236976 3.691556 -0.672703 -0.041362 -0.893909 -2.434322 -3.426311 -0.000000 0.000000 0.000000 2.083554 -9.087837 -8.087221 15.540630 5.177689 -72.542620 0.000004 -38.850253 -0.000004 1.582542 20.588330 -4.269133 -0.328619 1.662732 -34.572044 0.620117 2.860474 -24.458708 0.010374 0.378608 -3.138943 0.000001 -0.000001 -0.000002 -1.055662 4.543182 7.785496 6.497752 18.430309 -1.299397 1.796151 8.691841 1.133478 -0.000000 0.000001 -0.000001 1.378927 2.487936 9.553068 6.759305 1.034565 72.842137 0.000005 26.717897 -0.000021 17.001900 -19.253169 5.193182 -8.940210 -6.513928 -11.522177 9.858130 -21.917831 0.834372 1.043953 -6.166923 -2.154142 -0.000002 0.000001 0.000001 -0.371910 0.206742 16.895668 1.094202 -3.749293 32.528807 0.510934 -2.620696 22.060481 -0.000000 -0.000000 0.000001 -6.101263 16.035081 9.579321 22.876721 -3.771566 3.512939 -14.414334 1.690096 -8.254770 -0.767011 -0.000001 -0.000002 0.000000 -0.000001 0.000000 -1.847338 -5.322571 -5.732345 19.877964 -6.487341 -1.029213 -13.688486 -1.636738 9.009106 -0.000043 -0.000015 -0.000006 -0.000000 -0.000000 -0.000000 
-2.513436 85.335869 37.066154 -3.215790 -2.006798 -0.927448 0.335246 -0.069892 0.727766 -0.003709 -0.021531 0.213627 -0.003725 -0.020415 0.213730 3.745844 -0.631955 -0.066158 -1.393156 -2.146372 -3.738751 0.000000 0.000000 0.000000 2.092416 -9.145377 -8.090249 15.401824 5.742784 -72.688157 -0.000006 -39.275411 -0.000006 1.740336 20.611827 -4.228398 -0.332854 1.655592 -34.561054 0.621830 2.864243 -24.493132 0.010322 0.377632 -3.130754 -0.000001 -0.000000 -0.000003 -1.055412 4.543545 7.773410 6.499263 18.435435 -1.300541 1.795603 8.690303 1.133743 -0.000001 -0.000001 -0.000000 1.383592 2.483007 9.583794 6.972053 2.161720 72.772626 -0.000005 26.887142 0.000006 17.004799 -19.069361 5.156690 -8.965476 -6.454311 -11.669542 9.845754 -21.888991 0.831426 1.034121 -6.140697 -2.154038 0.000002 0.000001 -0.000000 -0.357812 0.189655 16.678104 1.093885 -3.748807 32.524104 0.524993 -2.655092 22.366006 -0.000000 -0.000001 -0.000002 -5.665154 15.888164 9.434990 22.088128 -3.559844 3.681256 -13.907857 1.780387 -8.849533 -0.699634 -0.000001 0.000001 0.000000 -0.000000 0.000000 -2.073546 -5.414083 -5.744314 20.488594 -6.348455 -0.932460 -14.178509 -1.566029 8.555173 -0.000065 0.000007 0.000005 -0.000000 0.000002 0.000000 
-2.985476 85.317932 37.079857 -3.250720 -2.000445 -0.597866 0.536436 -0.075092 0.653137 0.051283 -0.022812 0.186020 0.051263 -0.021828 0.186136 3.768335 -0.594738 -0.119582 -1.798783 -1.938708 -3.957746 -0.000000 -0.000000 0.000000 2.110831 -9.227540 -8.122283 15.311373 5.965561 -72.691272 -0.000009 -39.635359 -0.000020 1.846594 20.717265 -4.179179 -0.335328 1.650052 -34.538388 0.623784 2.868519 -24.532247 0.010348 0.378202 -3.135507 0.000000 -0.000000 0.000001 -1.053625 4.546754 7.759955 6.501646 18.443538 -1.302315 1.795368 8.689723 1.133909 0.000001 -0.000001 -0.000001 1.384430 2.473674 9.596142 6.958581 2.869622 72.788281 0.000008 26.885407 -0.000034 17.163760 -18.831788 4.967953 -8.990833 -6.394100 -11.814891 9.834123 -21.861912 0.828670 1.023278 -6.111652 -2.153902 -0.000001 0.000004 -0.000000 -0.350291 0.178400 16.574526 1.093710 -3.748523 32.521311 0.537420 -2.685059 22.632749 0.000000 -0.000001 -0.000003 -5.319520 15.747811 9.349356 21.493695 -3.415113 3.742171 -13.497530 1.844916 -9.314497 -0.633834 -0.000004 0.000000 0.000000 0.000000 0.000000 -2.289877 -5.493449 -5.782624 21.161726 -6.143353 -0.821670 -14.693176 -1.628478 8.120388 -0.064212 -0.000005 -0.000000 0.000000 -0.000002 -0.000000 
-3.394676 85.303879 37.106255 -3.282862 -1.924404 -0.332876 0.701126 -0.101660 0.614014 0.094461 -0.030691 0.169983 0.094436 -0.029780 0.170149 3.791807 -0.569519 -0.176892 -2.032031 -1.825182 -4.094490 0.000000 -0.000000 0.000000 2.131779 -9.317996 -8.160248 15.312891 5.936939 -72.636582 -0.000001 -39.886232 0.000002 2.103180 20.927430 -4.221804 -0.335053 1.647521 -34.503599 0.625110 2.871417 -24.558632 0.010488 0.380715 -3.156402 0.000001 0.000000 0.000002 -1.050606 4.552238 7.745229 6.503934 18.451363 -1.304030 1.795670 8.690497 1.133711 0.000001 -0.000003 -0.000001 1.382977 2.474394 9.587208 6.937783 3.103164 72.831325 0.000005 26.959127 -0.000005 17.081053 -18.693575 4.718947 -9.011801 -6.344101 -11.932071 9.825242 -21.841166 0.826587 1.012917 -6.084004 -2.153823 -0.000001 0.000000 -0.000001 -0.349433 0.171889 16.600502 1.093667 -3.748465 32.520730 0.545444 -2.704200 22.803389 -0.000001 -0.000000 -0.000005 -5.042331 15.638039 9.308242 20.984937 -3.341761 3.799905 -13.137889 1.894901 -9.708929 -0.565219 0.000002 0.000002 0.000000 0.000001 -0.000000 -2.393281 -5.523346 -5.752020 21.664549 -6.182482 -0.779123 -15.123984 -1.614896 7.822914 -0.212780 0.000002 -0.000000 -0.000000 0.000000 0.000000 
-3.728334 85.295662 37.158398 -3.283433 -1.787308 -0.169133 0.767851 -0.160901 0.630142 0.107354 -0.048480 0.171756 0.107309 -0.047518 0.172036 3.843156 -0.563115 -0.199652 -2.099327 -1.794001 -4.155675 0.000000 -0.000000 0.000000 2.146460 -9.390759 -8.179940 15.428793 5.849829 -72.619787 -0.000003 -40.078758 0.000004 2.551860 21.164133 -4.375362 -0.329515 1.651906 -34.458892 0.625586 2.872461 -24.568160 0.010769 0.385768 -3.198301 -0.000000 -0.000001 0.000001 -1.046865 4.559051 7.729146 6.505029 18.455103 -1.304833 1.796647 8.693165 1.133175 0.000001 0.000000 -0.000001 1.382282 2.485168 9.574543 7.084081 3.069631 72.809161 -0.000002 27.207106 -0.000003 16.579043 -18.683009 4.589936 -9.025209 -6.312121 -12.002971 9.820347 -21.829771 0.825413 1.004432 -6.061332 -2.153751 0.000002 0.000002 0.000003 -0.352498 0.165565 16.721761 1.093730 -3.748559 32.521635 0.548253 -2.710878 22.862984 0.000001 0.000001 -0.000000 -4.876737 15.555257 9.334591 20.602207 -3.343682 3.878856 -12.865431 1.937187 -10.038710 -0.489642 -0.000001 -0.000001 -0.000000 -0.000001 -0.000000 -2.387707 -5.493902 -5.640328 21.950623 -6.379175 -0.750828 -15.443090 -1.598120 7.618308 -0.311982 0.000010 -0.000002 0.000000 -0.000000 -0.000000 
-3.987208 85.287506 37.238434 -3.250544 -1.610847 -0.111957 0.729580 -0.247052 0.688078 0.087559 -0.074490 0.187589 0.087482 -0.073345 0.188048 3.924283 -0.576746 -0.168003 -2.071603 -1.829963 -4.132268 0.000000 -0.000000 0.000000 2.152152 -9.434996 -8.176312 15.647034 5.846329 -72.684756 -0.000007 -40.267780 -0.000024 2.995394 21.294517 -4.504999 -0.317082 1.666043 -34.408908 0.625622 2.872531 -24.568800 0.011204 0.393530 -3.262763 -0.000000 -0.000000 0.000001 -1.042852 4.566366 7.713662 6.504372 18.452871 -1.304339 1.798367 8.697793 1.132172 0.000001 0.000000 0.000000 1.384222 2.491527 9.580548 7.373775 2.978019 72.691818 -0.000005 27.463059 0.000010 15.993713 -18.676242 4.639784 -9.031153 -6.298100 -12.030536 9.819299 -21.827312 0.825167 0.998338 -6.045030 -2.153665 -0.000000 0.000003 0.000001 -0.356002 0.155324 16.881969 1.093806 -3.748677 32.522755 0.547095 -2.708126 22.838466 0.000000 0.000002 0.000002 -4.835470 15.502803 9.434364 20.384020 -3.439258 3.986086 -12.710805 1.979388 -10.304634 -0.410266 -0.000001 -0.000002 0.000000 0.000001 0.000000 -2.299878 -5.426011 -5.461178 22.056822 -6.669707 -0.710991 -15.667974 -1.584345 7.479594 -0.367319 -0.000002 -0.000001 -0.000000 0.000000 -0.000000 
-4.175399 85.277550 37.345581 -3.229025 -1.418075 -0.153466 0.628352 -0.342879 0.777317 0.047438 -0.103429 0.213698 0.047321 -0.101977 0.214379 4.036800 -0.606013 -0.092784 -2.020564 -1.925928 -4.010732 0.000000 -0.000000 0.000000 2.152256 -9.461208 -8.158564 15.895160 5.921643 -72.812890 0.000008 -40.360530 0.000000 3.228904 21.253525 -4.472047 -0.299231 1.688355 -34.360223 0.625698 2.872707 -24.570391 0.011760 0.403094 -3.342172 0.000001 0.000001 -0.000000 -1.038748 4.573879 7.702003 6.502268 18.445698 -1.302776 1.800587 8.703853 1.130937 -0.000002 0.000001 0.000001 1.389079 2.489464 9.610066 7.642954 2.797042 72.538877 0.000003 27.485444 -0.000021 15.850972 -18.560021 4.751752 -9.033122 -6.293498 -12.039101 9.820303 -21.829630 0.825426 0.994054 -6.033581 -2.153606 0.000001 0.000000 0.000001 -0.358026 0.141301 17.033773 1.093804 -3.748673 32.522762 0.543866 -2.700458 22.770068 -0.000000 -0.000000 0.000001 -4.864146 15.508713 9.609707 20.330808 -3.657123 4.107131 -12.685449 2.023367 -10.497198 -0.343844 0.000006 -0.000002 0.000000 0.000001 -0.000000 -2.100799 -5.349774 -5.233573 22.013312 -6.993533 -0.651986 -15.821211 -1.573554 7.387564 -0.401221 -0.000000 -0.000000 -0.000000 -0.000000 -0.000000 
